<svg xmlns="http://www.w3.org/2000/svg" viewBox="0 0 32 32"><path d="M16,0A16,16,0,1,0,32,16,16.01781,16.01781,0,0,0,16,0ZM5.53,7.14971,24.85078,26.47l-.10853.08915h-.001A13.70824,13.70824,0,0,1,5.44041,7.25775ZM26.47,24.85078,7.14971,5.53052l.108-.09011A13.70813,13.70813,0,0,1,26.55911,24.74128Z" style="fill:#fff"/><path d="M27,22.04049a.72964.72964,0,0,0-.73-.73H24.27348A14.56543,14.56543,0,0,1,22.3386,14.734l.00067-1.42834c.01972-.39783.057-.79755.10578-1.19818H17.13621l5.59619-1.52845A14.62986,14.62986,0,0,1,24.195,6.86532a14.27165,14.27165,0,0,0-11.30573,3.34424l12.56061,12.561H26.27A.72964.72964,0,0,0,27,22.04049Z" style="fill:#fff"/><path d="M5,22.04049a.72959.72959,0,0,0,.73.73H20.09043l-9.752-9.75177a14.47951,14.47951,0,0,0-2.61194,8.29169H5.73A.72959.72959,0,0,0,5,22.04049Z" style="fill:#fff"/></svg>