<svg xmlns="http://www.w3.org/2000/svg" viewBox="0 0 32 32"><circle cx="16" cy="16" r="15.5" fill="#fff"/><path d="M25.33635,22.54138H6.66365a.66365.66365,0,1,1,0-1.3273h18.6727a.66365.66365,0,0,1,0,1.3273Z" fill="#00a69c"/><path d="M21.76236,15.2355,21.763,13.937c.0179-.36167.05174-.725.09616-1.08927H17.03288l5.08748-1.3895a13.30116,13.30116,0,0,1,1.32969-3.37613A13.1704,13.1704,0,0,0,8.4786,21.2141H23.52139A13.241,13.241,0,0,1,21.76236,15.2355Z" fill="#22314a"/><path d="M16,0A16,16,0,1,0,32,16,16.01781,16.01781,0,0,0,16,0ZM5.53,7.14971,24.85078,26.47l-.10853.08915h-.001A13.70824,13.70824,0,0,1,5.44041,7.25775ZM26.47,24.85078,7.14971,5.53052l.108-.09011A13.70813,13.70813,0,0,1,26.55911,24.74128Z" fill="#ec1c24"/></svg>