<svg xmlns="http://www.w3.org/2000/svg" xmlns:xlink="http://www.w3.org/1999/xlink" viewBox="0 0 44.10783 32.72123"><image width="326" height="251" transform="scale(0.13036)" xlink:href="shark.png"/><path d="M28.87826,3.48659a3.92515,3.92515,0,0,1,1.48151.35575,3.49745,3.49745,0,0,1,1.30607,1.17742c.32927.22647.64285.47318.95417.72525a4.43264,4.43264,0,0,0-2.03866-2.35007A4.22255,4.22255,0,0,0,27.758,3.0933C28.13458,3.21685,28.51319,3.33453,28.87826,3.48659Z" fill="#29b473"/><path d="M32.70552,9.17928a.7865.7865,0,0,0-.24457-.2284.82077.82077,0,0,0-.17637-.06013,1.11362,1.11362,0,0,1-.1564.24874,1.39358,1.39358,0,0,1-.22659.18764.6398.6398,0,0,1-.46668.14278c-.27377-.05925-.38607-.5089-.51721-1.02952a3.11865,3.11865,0,0,0-1.10609-2.00283,2.36729,2.36729,0,0,0-1.63587-.28417c-.50411.04306-.82564.0557-1.0812-.21134a1.00122,1.00122,0,0,1-.20342-.3433c-.189-.06094-.37542-.12672-.56715-.17875a1.6353,1.6353,0,0,0,.40915.86732,1.64369,1.64369,0,0,0,1.48488.36476,1.91351,1.91351,0,0,1,1.31844.20253,2.699,2.699,0,0,1,.89581,1.7081c.16488.65351.32031,1.27007.89617,1.396a.93947.93947,0,0,0,.50641-.0361,1.36448,1.36448,0,0,0,.23276-.106,1.87962,1.87962,0,0,0,.42758-.33707A1.56132,1.56132,0,0,0,32.70552,9.17928Z" fill="#29b473"/><path d="M44.00909,11.71228a.75827.75827,0,0,0-.28429-1.03288L35.66511,6.10858A1.06112,1.06112,0,0,0,34.639,6.09821L31.18085,7.97133c.0376.13247.07134.262.1018.38322.02734.11.05847.23.09114.34461a1.04409,1.04409,0,0,1,.88634-.20227l.16836.04467a1.00292,1.00292,0,0,1,.16918.05864l.07342-.02028.021.07222a1.185,1.185,0,0,1,.34294.34294l.114.15594-.01788.03432a1.16441,1.16441,0,0,1-.03437,1.07126,1.22723,1.22723,0,0,1-1.63129.4506,1.14062,1.14062,0,0,1-.43129-.45734A1.75078,1.75078,0,0,1,30.149,8.96353a1.00665,1.00665,0,0,0-.021.254l.19227,4.49586a1.05417,1.05417,0,0,0,.53585.87626l8.05943,4.56989a.77579.77579,0,0,0,1.03262-.28524Z" fill="#29b473"/></svg>