<svg xmlns="http://www.w3.org/2000/svg" viewBox="0 0 32 32"><path d="M21.96343,6.27481a13.83642,13.83642,0,0,1,1.78464.12841,13.25985,13.25985,0,0,0-1.75455,6.08907l-2.84123.32016L16,13.16764l3.15234.35518,2.84059.31994a13.77042,13.77042,0,0,0,1.82934,6.2177H8.17778A13.78567,13.78567,0,0,1,21.96343,6.27481" fill="#22314a"/><path d="M27.04314,21.44085H4.95686a.6902.6902,0,0,1,0-1.38039H27.04314a.6902.6902,0,0,1,0,1.38039Z" fill="#00c7ff"/><path d="M18.61289,24.49416H8.55574a.70324.70324,0,1,1,0-1.38039H18.61289a.70324.70324,0,1,1,0,1.38039Z" fill="#00c7ff"/><path d="M18.958,27.43924H13.042c-.2725,0-.493-.3087-.493-.6902s.2205-.69019.493-.69019h5.916c.2725,0,.493.3087.493.69019S19.23048,27.43924,18.958,27.43924Z" fill="#00c7ff"/><path d="M24.44631,24.49416H21.28887a.71574.71574,0,0,1,0-1.38039h3.15744a.71574.71574,0,0,1,0,1.38039Z" fill="#00c7ff"/><path d="M16,0A16,16,0,1,0,32,16,16.01781,16.01781,0,0,0,16,0ZM5.53,7.14971,24.85078,26.47l-.10853.08915h-.001A13.70824,13.70824,0,0,1,5.44041,7.25775ZM26.47,24.85078,7.14971,5.53052l.108-.09011A13.70813,13.70813,0,0,1,26.55911,24.74128Z" fill="#ec1c24"/></svg>