<svg xmlns="http://www.w3.org/2000/svg" viewBox="0 0 38.03411 32"><circle cx="22.03411" cy="16" r="16" fill="#fff"/><path d="M30.43682,21.81223H13.63139a.59729.59729,0,0,1,0-1.19457H30.43682a.59729.59729,0,1,1,0,1.19457Z" fill="#00a69c"/><path d="M27.22023,15.23694l.00055-1.16864c.01611-.3255.04657-.65253.08655-.98035H22.9637l4.57873-1.25055a11.97119,11.97119,0,0,1,1.19672-3.03851,11.85329,11.85329,0,0,0-13.4743,11.81879H28.80336A11.917,11.917,0,0,1,27.22023,15.23694Z" fill="#22314a"/><path d="M12.16609,3.87109a4.80778,4.80778,0,0,1,2.27051-2.498A4.77226,4.77226,0,0,1,16.40437.9502a3.83964,3.83964,0,0,1,1.13135.15966l1.167.36035L17.37947,1.874c-.31836.09668-.63623.19239-.94531.314l-.06055.02344-.06445.00244a3.55252,3.55252,0,0,0-1.34131.28955,3.12665,3.12665,0,0,0-1.18506,1.03076l-.04053.05615-.05712.0376c-.32569.21436-.63672.44922-.94532.689l-1.1582.89893Z" fill="#00a69c"/><path d="M16.4043,1.32527a3.48216,3.48216,0,0,1,1.02068.143c-.379.11588-.75993.22583-1.128.37043a3.92522,3.92522,0,0,0-1.48843.32555,3.49748,3.49748,0,0,0-1.32975,1.15062c-.3338.21973-.65234.46-.96872.70569a4.43263,4.43263,0,0,1,2.086-2.30812,4.39078,4.39078,0,0,1,1.80821-.38719m.00012-.75h0a5.16015,5.16015,0,0,0-2.12836.4589,5.17447,5.17447,0,0,0-2.45394,2.68771l-1.16764,2.6892L12.97006,4.613c.28666-.2226.59665-.458.9211-.6716l.11539-.076.08076-.11209a2.751,2.751,0,0,1,1.04093-.91057,3.16992,3.16992,0,0,1,1.19281-.25439l.12952-.00416.12062-.04738c.287-.11274.58813-.20407.907-.30076l.16611-.05052L19.979,1.47168l-2.33278-.72A4.21147,4.21147,0,0,0,16.40442.57527Z" fill="#fff"/><path d="M22.03411,1a15,15,0,1,0,15,15A15.01669,15.01669,0,0,0,22.03411,1ZM12.21852,7.70285,30.33171,25.81559l-.10174.08357h-.00091a12.85147,12.85147,0,0,1-18.09457-18.095ZM31.8497,24.2976,13.737,6.18487l.10129-.08449A12.85137,12.85137,0,0,1,31.93327,24.195Z" fill="#ec1c24"/><path d="M5.58357,17.89648a1.26045,1.26045,0,0,1-1.10644-.66015L.56111,9.9917A1.25951,1.25951,0,0,1,1.0699,8.2876L9.22029,3.88184a1.5602,1.5602,0,0,1,1.187-.12256,1.602,1.602,0,0,1,.32325.13769l3.91357,2.22364a1.56956,1.56956,0,0,1,.78613,1.45312l-.28418,4.4917a1.54769,1.54769,0,0,1-.81347,1.273L6.18123,17.74512a1.27041,1.27041,0,0,1-.59766.15136Zm7.41065-10.6416a.68689.68689,0,0,0-.33106.08448.69683.69683,0,0,0,.33252,1.30908.68486.68486,0,0,0,.32959-.084.69658.69658,0,0,0-.13183-1.28027A.70528.70528,0,0,0,12.99422,7.25488Z" fill="#00a69c"/><path d="M9.96145,4.06934a1.18281,1.18281,0,0,1,.58454.15446L14.45919,6.447a1.18328,1.18328,0,0,1,.59653,1.10349l-.28354,4.49169a1.18323,1.18323,0,0,1-.61832.96656L6.00311,17.41462A.8822.8822,0,0,1,4.80743,17.058L.89136,9.81337A.8822.8822,0,0,1,1.24792,8.6176L9.39867,4.21175a1.18265,1.18265,0,0,1,.56278-.14241m3.034,4.954a1.07277,1.07277,0,1,0-.30715-.04489,1.06672,1.06672,0,0,0,.30715.04489m-3.034-5.704A1.93972,1.93972,0,0,0,9.042,3.552L.89128,7.95782A1.63219,1.63219,0,0,0,.23159,10.17l3.91606,7.24457a1.63168,1.63168,0,0,0,2.21219.65975l8.15066-4.4058a1.92236,1.92236,0,0,0,1.01019-1.57915l.28354-4.49165a1.94492,1.94492,0,0,0-.97466-1.80288L10.91647,3.5717a1.9327,1.9327,0,0,0-.955-.25236Zm3.034,4.954a.32451.32451,0,0,1-.0928-.01361.32141.32141,0,0,1-.061-.59079.31652.31652,0,0,1,.15194-.03888.32448.32448,0,0,1,.09279.0136.32147.32147,0,0,1,.06093.59082.31628.31628,0,0,1-.15187.03886Z" fill="#fff"/><path d="M13.54988,8.40088a1.13044,1.13044,0,0,1-.38232-.06983,1.50087,1.50087,0,0,1-.252-.12109,1.97214,1.97214,0,0,1-.4497-.37012,1.64683,1.64683,0,0,1-.22168-.32812l-.0376-.0708.04834-.064a.911.911,0,0,1,.28955-.25781.63688.63688,0,0,1,.15771-.05518l.09815-.02441.09326.07813a1.02461,1.02461,0,0,0,.13233.22314,1.2608,1.2608,0,0,0,.20214.17432.61035.61035,0,0,0,.32373.13525c.2417-.043.36475-.49365.48389-.9292a3.21986,3.21986,0,0,1,1.20117-2.05664A2.03083,2.03083,0,0,1,16.37166,4.355a5.58045,5.58045,0,0,1,.585.03955,4.34975,4.34975,0,0,0,.45166.03272A.67931.67931,0,0,0,17.942,4.2417a.88875.88875,0,0,0,.18311-.29785l.02246-.05567.2041-.062c.14258-.04394.28467-.08789.42969-.12353l.18994-.04737-.03711.1919a1.74193,1.74193,0,0,1-.46045.92334,1.42581,1.42581,0,0,1-1.06592.40771,5.18942,5.18942,0,0,1-.52832-.03662,4.78192,4.78192,0,0,0-.50732-.03662,1.30127,1.30127,0,0,0-.73487.19336,2.609,2.609,0,0,0-.87646,1.61621c-.18067.65869-.3667,1.33887-1.02051,1.46777A.98224.98224,0,0,1,13.54988,8.40088Z" fill="#00a69c"/><path d="M18.81141,3.82369a1.63534,1.63534,0,0,1-.4267.85881,1.28616,1.28616,0,0,1-.97639.37071,4.95948,4.95948,0,0,1-.51561-.03622,4.99429,4.99429,0,0,0-.52086-.037,1.43635,1.43635,0,0,0-.80142.21266,2.699,2.699,0,0,0-.93037,1.68952c-.17813.65-.34607,1.2633-.92437,1.3775a.85626.85626,0,0,1-.16625.01618.99732.99732,0,0,1-.33932-.06257,1.364,1.364,0,0,1-.23055-.11067,1.87923,1.87923,0,0,1-.42064-.3457,1.56068,1.56068,0,0,1-.2042-.30452.78627.78627,0,0,1,.24916-.22338.82125.82125,0,0,1,.17756-.05654,1.1129,1.1129,0,0,0,.15131.25187,1.39361,1.39361,0,0,0,.22272.19222.73093.73093,0,0,0,.396.15883.3412.3412,0,0,0,.06767-.00659c.27492-.05367.39634-.50094.538-1.01879a3.11865,3.11865,0,0,1,1.14659-1.97992,1.918,1.918,0,0,1,1.067-.29021,5.48589,5.48589,0,0,1,.5743.03936,4.55437,4.55437,0,0,0,.46263.03284A.8026.8026,0,0,0,18.03038,4.33a1.00118,1.00118,0,0,0,.21036-.33909c.1902-.05709.37792-.11907.57067-.16718m.31932-.33737-.37986.09481c-.14544.0363-.28813.08014-.431.12418l-.151.04611-.11528.0346-.04485.11169a.756.756,0,0,1-.15562.256.55573.55573,0,0,1-.44539.14845,4.30749,4.30749,0,0,1-.43628-.03146,5.74033,5.74033,0,0,0-.60064-.04075,2.1493,2.1493,0,0,0-1.20069.32894A3.35815,3.35815,0,0,0,13.917,6.68056c-.08541.31215-.22414.81915-.34576.84289l-.00952.0002a.45985.45985,0,0,1-.26129-.11074,1.14169,1.14169,0,0,1-.18014-.15386.96277.96277,0,0,1-.11406-.19595l-.09136-.18773-.201.05642a.92294.92294,0,0,0-.22887.07731,1.02985,1.02985,0,0,0-.3291.29174l-.09724.12754.0754.14156a1.80033,1.80033,0,0,0,.23793.353,2.11686,2.11686,0,0,0,.48009.39474,1.61445,1.61445,0,0,0,.27288.13067,1.24711,1.24711,0,0,0,.42446.07751,1.10575,1.10575,0,0,0,.21469-.02092c.73-.14415.92668-.862,1.11693-1.55627a2.52657,2.52657,0,0,1,.823-1.54473A1.18419,1.18419,0,0,1,16.37183,5.23a4.74642,4.74642,0,0,1,.4946.03559,5.21015,5.21015,0,0,0,.54189.03761,1.54055,1.54055,0,0,0,1.15352-.44429,1.866,1.866,0,0,0,.49509-.9881l.0738-.3845Z" fill="#fff"/></svg>